<svg xmlns="http://www.w3.org/2000/svg" xmlns:xlink="http://www.w3.org/1999/xlink" width="158" zoomAndPan="magnify" viewBox="0 0 118.5 121.499994" height="162" preserveAspectRatio="xMidYMid meet" version="1.2"><defs><clipPath id="ec0c883bca"><path d="M 48 109 L 57 109 L 57 120.996094 L 48 120.996094 Z M 48 109 "/></clipPath><clipPath id="73c85cbff7"><path d="M 48 0.0078125 L 54 0.0078125 L 54 12 L 48 12 Z M 48 0.0078125 "/></clipPath><clipPath id="ba4e9ba743"><path d="M 61 0.0078125 L 70 0.0078125 L 70 11 L 61 11 Z M 61 0.0078125 "/></clipPath><clipPath id="6a861407e2"><path d="M 108 50 L 118.003906 50 L 118.003906 59 L 108 59 Z M 108 50 "/></clipPath><clipPath id="8506289428"><path d="M 63 109 L 69 109 L 69 120.996094 L 63 120.996094 Z M 63 109 "/></clipPath></defs><g id="93d7df2671"><g clip-rule="nonzero" clip-path="url(#ec0c883bca)"><g style="fill:#ffffff;fill-opacity:1;"><g transform="translate(57.299605, 110.73994)"><path style="stroke:none" d="M -3.75 3.984375 L -3.453125 1.265625 L -8.1875 0.734375 L -8 -0.90625 L -1.28125 -0.140625 L -2.40625 9.796875 L -9.015625 9.046875 L -8.828125 7.40625 L -4.203125 7.921875 L -3.9375 5.59375 L -7.96875 5.140625 L -7.78125 3.53125 Z M -3.75 3.984375 "/></g></g></g><g style="fill:#ffffff;fill-opacity:1;"><g transform="translate(49.356493, 110.136018)"><path style="stroke:none" d="M -1.046875 -0.34375 L -3.375 6.828125 L -5.09375 6.28125 L -4.78125 5.328125 L -4.90625 5.25 C -5.269531 5.550781 -5.632812 5.742188 -6 5.828125 C -6.375 5.910156 -6.8125 5.867188 -7.3125 5.703125 C -7.84375 5.535156 -8.238281 5.285156 -8.5 4.953125 C -8.757812 4.628906 -8.898438 4.238281 -8.921875 3.78125 L -9.0625 3.75 C -9.425781 4.101562 -9.8125 4.328125 -10.21875 4.421875 C -10.632812 4.515625 -11.109375 4.476562 -11.640625 4.3125 C -13.117188 3.820312 -13.585938 2.75 -13.046875 1.09375 L -11.484375 -3.734375 L -9.671875 -3.140625 L -11.15625 1.453125 C -11.300781 1.878906 -11.320312 2.207031 -11.21875 2.4375 C -11.113281 2.675781 -10.878906 2.851562 -10.515625 2.96875 C -9.523438 3.289062 -8.816406 2.789062 -8.390625 1.46875 L -7.15625 -2.328125 L -5.359375 -1.75 L -6.84375 2.84375 C -6.988281 3.269531 -7.003906 3.601562 -6.890625 3.84375 C -6.785156 4.082031 -6.550781 4.257812 -6.1875 4.375 C -5.71875 4.53125 -5.304688 4.492188 -4.953125 4.265625 C -4.597656 4.046875 -4.3125 3.597656 -4.09375 2.921875 L -2.84375 -0.921875 Z M -1.046875 -0.34375 "/></g></g><g style="fill:#ffffff;fill-opacity:1;"><g transform="translate(37.633824, 106.185896)"><path style="stroke:none" d="M 0.5625 -3.203125 L -4.703125 6 L -6.34375 5.0625 L -5.859375 4.203125 L -5.96875 4.125 C -6.34375 4.34375 -6.738281 4.441406 -7.15625 4.421875 C -7.570312 4.398438 -8 4.269531 -8.4375 4.03125 C -8.957031 3.726562 -9.347656 3.335938 -9.609375 2.859375 C -9.867188 2.378906 -9.957031 1.820312 -9.875 1.1875 C -9.800781 0.550781 -9.550781 -0.140625 -9.125 -0.890625 C -8.695312 -1.640625 -8.222656 -2.195312 -7.703125 -2.5625 C -7.179688 -2.9375 -6.644531 -3.128906 -6.09375 -3.140625 C -5.539062 -3.160156 -4.992188 -3.015625 -4.453125 -2.703125 C -4.046875 -2.472656 -3.734375 -2.207031 -3.515625 -1.90625 C -3.296875 -1.601562 -3.164062 -1.242188 -3.125 -0.828125 L -2.984375 -0.796875 L -1.078125 -4.140625 Z M -4.796875 -1.046875 C -5.285156 -1.328125 -5.75 -1.378906 -6.1875 -1.203125 C -6.625 -1.035156 -7.039062 -0.609375 -7.4375 0.078125 C -7.832031 0.773438 -7.992188 1.359375 -7.921875 1.828125 C -7.847656 2.296875 -7.566406 2.671875 -7.078125 2.953125 C -6.617188 3.210938 -6.160156 3.25 -5.703125 3.0625 C -5.242188 2.882812 -4.820312 2.460938 -4.4375 1.796875 C -4.050781 1.128906 -3.898438 0.550781 -3.984375 0.0625 C -4.066406 -0.414062 -4.335938 -0.785156 -4.796875 -1.046875 Z M -4.796875 -1.046875 "/></g></g><g style="fill:#ffffff;fill-opacity:1;"><g transform="translate(30.25474, 102.000424)"><path style="stroke:none" d="M -3.296875 -2.875 C -2.722656 -2.414062 -2.316406 -1.890625 -2.078125 -1.296875 C -1.835938 -0.710938 -1.78125 -0.0976562 -1.90625 0.546875 C -2.039062 1.203125 -2.375 1.847656 -2.90625 2.484375 C -3.425781 3.128906 -3.992188 3.582031 -4.609375 3.84375 C -5.222656 4.101562 -5.84375 4.171875 -6.46875 4.046875 C -7.09375 3.929688 -7.691406 3.644531 -8.265625 3.1875 C -8.835938 2.71875 -9.242188 2.1875 -9.484375 1.59375 C -9.722656 1 -9.773438 0.378906 -9.640625 -0.265625 C -9.503906 -0.921875 -9.175781 -1.570312 -8.65625 -2.21875 C -8.125 -2.851562 -7.550781 -3.300781 -6.9375 -3.5625 C -6.332031 -3.820312 -5.71875 -3.890625 -5.09375 -3.765625 C -4.46875 -3.640625 -3.867188 -3.34375 -3.296875 -2.875 Z M -4.328125 -1.625 C -5.234375 -2.375 -6.171875 -2.160156 -7.140625 -0.984375 C -7.640625 -0.359375 -7.890625 0.191406 -7.890625 0.671875 C -7.890625 1.148438 -7.671875 1.570312 -7.234375 1.9375 C -6.328125 2.675781 -5.390625 2.445312 -4.421875 1.25 C -3.453125 0.0703125 -3.421875 -0.882812 -4.328125 -1.625 Z M -4.328125 -1.625 "/></g></g><g style="fill:#ffffff;fill-opacity:1;"><g transform="translate(23.843461, 96.953171)"><path style="stroke:none" d="M -2.609375 -3.09375 L -1.328125 -1.578125 L -5.953125 4.640625 L -7.078125 3.3125 L -3.890625 -0.828125 L -3.96875 -0.9375 L -8.8125 1.25 L -9.859375 0 L -6.90625 -4.421875 L -7 -4.53125 L -11.59375 -2.0625 L -12.703125 -3.375 L -5.78125 -6.875 L -4.515625 -5.359375 L -7.53125 -0.953125 L -7.4375 -0.828125 Z M -2.609375 -3.09375 "/></g></g><g style="fill:#ffffff;fill-opacity:1;"><g transform="translate(17.176822, 88.930056)"><path style="stroke:none" d="M -6.609375 -4.8125 L -4.203125 -0.609375 C -3.660156 -0.972656 -3.335938 -1.363281 -3.234375 -1.78125 C -3.140625 -2.207031 -3.226562 -2.660156 -3.5 -3.140625 C -3.71875 -3.523438 -3.960938 -3.789062 -4.234375 -3.9375 C -4.503906 -4.09375 -4.820312 -4.160156 -5.1875 -4.140625 L -5.25 -4.25 L -5.1875 -5.765625 C -4.601562 -5.804688 -4.046875 -5.691406 -3.515625 -5.421875 C -2.984375 -5.148438 -2.507812 -4.65625 -2.09375 -3.9375 C -1.707031 -3.257812 -1.503906 -2.597656 -1.484375 -1.953125 C -1.460938 -1.316406 -1.625 -0.71875 -1.96875 -0.15625 C -2.320312 0.394531 -2.863281 0.878906 -3.59375 1.296875 C -4.332031 1.722656 -5.035156 1.941406 -5.703125 1.953125 C -6.378906 1.960938 -6.984375 1.800781 -7.515625 1.46875 C -8.046875 1.132812 -8.484375 0.671875 -8.828125 0.078125 C -9.359375 -0.859375 -9.515625 -1.710938 -9.296875 -2.484375 C -9.085938 -3.253906 -8.507812 -3.914062 -7.5625 -4.46875 C -7.21875 -4.664062 -6.945312 -4.804688 -6.75 -4.890625 Z M -6.859375 -2.796875 C -7.347656 -2.484375 -7.644531 -2.148438 -7.75 -1.796875 C -7.851562 -1.453125 -7.785156 -1.070312 -7.546875 -0.65625 C -7.078125 0.164062 -6.316406 0.375 -5.265625 -0.03125 Z M -6.859375 -2.796875 "/></g></g><g style="fill:#ffffff;fill-opacity:1;"><g transform="translate(13.362042, 82.186186)"><path style="stroke:none" d="M -0.421875 -1.015625 L -7.40625 1.84375 L -8.09375 0.15625 L -7.046875 -0.265625 L -7.0625 -0.40625 C -7.519531 -0.425781 -7.898438 -0.535156 -8.203125 -0.734375 C -8.503906 -0.929688 -8.734375 -1.226562 -8.890625 -1.625 C -9.054688 -2.019531 -9.113281 -2.347656 -9.0625 -2.609375 L -7.40625 -2.9375 L -7.359375 -2.796875 C -7.335938 -2.671875 -7.316406 -2.550781 -7.296875 -2.4375 C -7.285156 -2.320312 -7.25 -2.1875 -7.1875 -2.03125 C -6.988281 -1.539062 -6.660156 -1.238281 -6.203125 -1.125 C -5.753906 -1.007812 -5.148438 -1.109375 -4.390625 -1.421875 L -1.125 -2.765625 Z M -0.421875 -1.015625 "/></g></g><g style="fill:#ffffff;fill-opacity:1;"><g transform="translate(11.264501, 76.990196)"><path style="stroke:none" d="M -0.5 -1.859375 C -0.425781 -1.628906 -0.410156 -1.410156 -0.453125 -1.203125 C -0.492188 -1.003906 -0.582031 -0.832031 -0.71875 -0.6875 C -0.863281 -0.539062 -1.039062 -0.4375 -1.25 -0.375 C -1.457031 -0.3125 -1.65625 -0.300781 -1.84375 -0.34375 C -2.039062 -0.382812 -2.210938 -0.476562 -2.359375 -0.625 C -2.515625 -0.769531 -2.628906 -0.957031 -2.703125 -1.1875 C -2.773438 -1.425781 -2.789062 -1.644531 -2.75 -1.84375 C -2.707031 -2.050781 -2.617188 -2.222656 -2.484375 -2.359375 C -2.347656 -2.503906 -2.175781 -2.609375 -1.96875 -2.671875 C -1.644531 -2.773438 -1.347656 -2.753906 -1.078125 -2.609375 C -0.804688 -2.460938 -0.613281 -2.210938 -0.5 -1.859375 Z M -0.5 -1.859375 "/></g></g><g style="fill:#ffffff;fill-opacity:1;"><g transform="translate(10.189825, 73.508789)"><path style="stroke:none" d=""/></g></g><g style="fill:#ffffff;fill-opacity:1;"><g transform="translate(9.356984, 70.69093)"><path style="stroke:none" d="M -4.75 -2.71875 L -2.03125 -3.046875 L -2.609375 -7.78125 L -0.96875 -7.984375 L -0.15625 -1.28125 L -10.078125 -0.078125 L -10.875 -6.671875 L -9.234375 -6.875 L -8.671875 -2.25 L -6.34375 -2.53125 L -6.828125 -6.578125 L -5.234375 -6.765625 Z M -4.75 -2.71875 "/></g></g><g style="fill:#ffffff;fill-opacity:1;"><g transform="translate(8.36328, 62.672053)"><path style="stroke:none" d="M 0.1875 -5.1875 L 0.109375 -2.9375 L -7.546875 -0.40625 L -7.46875 -2.390625 L -2.03125 -4.078125 L -2.03125 -4.234375 L -7.328125 -6.296875 L -7.265625 -8.234375 Z M 0.1875 -5.1875 "/></g></g><g style="fill:#ffffff;fill-opacity:1;"><g transform="translate(8.567005, 55.085337)"><path style="stroke:none" d="M 0.984375 -4.265625 C 0.835938 -3.546875 0.5625 -2.9375 0.15625 -2.4375 C -0.238281 -1.945312 -0.753906 -1.609375 -1.390625 -1.421875 C -2.023438 -1.234375 -2.753906 -1.21875 -3.578125 -1.375 C -4.390625 -1.539062 -5.050781 -1.828125 -5.5625 -2.234375 C -6.082031 -2.648438 -6.4375 -3.160156 -6.625 -3.765625 C -6.820312 -4.378906 -6.847656 -5.046875 -6.703125 -5.765625 C -6.566406 -6.484375 -6.296875 -7.085938 -5.890625 -7.578125 C -5.484375 -8.078125 -4.960938 -8.421875 -4.328125 -8.609375 C -3.691406 -8.804688 -2.96875 -8.820312 -2.15625 -8.65625 C -1.332031 -8.5 -0.660156 -8.210938 -0.140625 -7.796875 C 0.367188 -7.378906 0.71875 -6.863281 0.90625 -6.25 C 1.09375 -5.644531 1.117188 -4.984375 0.984375 -4.265625 Z M -0.59375 -4.578125 C -0.375 -5.734375 -1.019531 -6.457031 -2.53125 -6.75 C -3.3125 -6.90625 -3.910156 -6.867188 -4.328125 -6.640625 C -4.753906 -6.421875 -5.019531 -6.03125 -5.125 -5.46875 C -5.351562 -4.320312 -4.710938 -3.597656 -3.203125 -3.296875 C -1.691406 -3.003906 -0.820312 -3.429688 -0.59375 -4.578125 Z M -0.59375 -4.578125 "/></g></g><g style="fill:#ffffff;fill-opacity:1;"><g transform="translate(10.280938, 46.923837)"><path style="stroke:none" d="M 1.109375 -2.921875 C 0.898438 -2.273438 0.566406 -1.84375 0.109375 -1.625 C -0.347656 -1.40625 -0.929688 -1.410156 -1.640625 -1.640625 L -9.71875 -4.28125 L -9.140625 -6.078125 L -1.140625 -3.46875 C -0.703125 -3.320312 -0.425781 -3.425781 -0.3125 -3.78125 C -0.269531 -3.882812 -0.242188 -4.003906 -0.234375 -4.140625 L -0.1875 -4.21875 L 1.25 -3.9375 C 1.269531 -3.8125 1.269531 -3.660156 1.25 -3.484375 C 1.226562 -3.316406 1.179688 -3.128906 1.109375 -2.921875 Z M 1.109375 -2.921875 "/></g></g><g style="fill:#ffffff;fill-opacity:1;"><g transform="translate(11.374385, 43.118904)"><path style="stroke:none" d="M 2.171875 -4.71875 L 1.234375 -2.671875 L -6.796875 -3.28125 L -5.96875 -5.09375 L -0.296875 -4.546875 L -0.234375 -4.6875 L -4.34375 -8.640625 L -3.53125 -10.390625 Z M 2.171875 -4.71875 "/></g></g><g style="fill:#ffffff;fill-opacity:1;"><g transform="translate(14.518, 36.199495)"><path style="stroke:none" d="M 1.3125 -8.0625 L -1.359375 -4.015625 C -0.773438 -3.703125 -0.273438 -3.59375 0.140625 -3.6875 C 0.566406 -3.789062 0.9375 -4.078125 1.25 -4.546875 C 1.488281 -4.910156 1.613281 -5.242188 1.625 -5.546875 C 1.632812 -5.859375 1.550781 -6.175781 1.375 -6.5 L 1.453125 -6.609375 L 2.796875 -7.234375 C 3.109375 -6.734375 3.265625 -6.179688 3.265625 -5.578125 C 3.273438 -4.984375 3.050781 -4.34375 2.59375 -3.65625 C 2.15625 -3 1.65625 -2.515625 1.09375 -2.203125 C 0.53125 -1.890625 -0.078125 -1.765625 -0.734375 -1.828125 C -1.390625 -1.898438 -2.066406 -2.171875 -2.765625 -2.640625 C -3.484375 -3.109375 -4 -3.640625 -4.3125 -4.234375 C -4.625 -4.828125 -4.75 -5.429688 -4.6875 -6.046875 C -4.632812 -6.671875 -4.414062 -7.269531 -4.03125 -7.84375 C -3.445312 -8.738281 -2.757812 -9.265625 -1.96875 -9.421875 C -1.1875 -9.585938 -0.335938 -9.367188 0.578125 -8.765625 C 0.910156 -8.546875 1.160156 -8.367188 1.328125 -8.234375 Z M -0.609375 -7.375 C -1.097656 -7.675781 -1.519531 -7.796875 -1.875 -7.734375 C -2.226562 -7.671875 -2.535156 -7.4375 -2.796875 -7.03125 C -3.328125 -6.238281 -3.179688 -5.46875 -2.359375 -4.71875 Z M -0.609375 -7.375 "/></g></g><g style="fill:#ffffff;fill-opacity:1;"><g transform="translate(18.90366, 29.736463)"><path style="stroke:none" d="M 1.28125 -1.421875 C 1.125 -1.242188 0.945312 -1.117188 0.75 -1.046875 C 0.5625 -0.972656 0.367188 -0.953125 0.171875 -0.984375 C -0.0234375 -1.015625 -0.207031 -1.097656 -0.375 -1.234375 C -0.539062 -1.378906 -0.65625 -1.546875 -0.71875 -1.734375 C -0.78125 -1.921875 -0.796875 -2.117188 -0.765625 -2.328125 C -0.734375 -2.535156 -0.640625 -2.726562 -0.484375 -2.90625 C -0.328125 -3.101562 -0.148438 -3.238281 0.046875 -3.3125 C 0.242188 -3.382812 0.4375 -3.398438 0.625 -3.359375 C 0.820312 -3.328125 1.003906 -3.242188 1.171875 -3.109375 C 1.429688 -2.890625 1.570312 -2.625 1.59375 -2.3125 C 1.625 -2.007812 1.519531 -1.710938 1.28125 -1.421875 Z M 1.28125 -1.421875 "/></g></g><g style="fill:#ffffff;fill-opacity:1;"><g transform="translate(21.23206, 26.942677)"><path style="stroke:none" d=""/></g></g><g style="fill:#ffffff;fill-opacity:1;"><g transform="translate(23.140656, 24.705402)"><path style="stroke:none" d="M -0.296875 -5.46875 L 1.453125 -3.375 L 5.109375 -6.4375 L 6.171875 -5.171875 L 1 -0.828125 L -5.421875 -8.5 L -0.34375 -12.765625 L 0.71875 -11.484375 L -2.84375 -8.5 L -1.34375 -6.703125 L 1.765625 -9.3125 L 2.8125 -8.078125 Z M -0.296875 -5.46875 "/></g></g><g style="fill:#ffffff;fill-opacity:1;"><g transform="translate(29.357872, 19.516877)"><path style="stroke:none" d="M 1.8125 -1.109375 L 0.109375 -0.0625 L -0.09375 -4.515625 L -3.71875 -6.5625 L -2 -7.625 L 0.40625 -6.1875 L 0.546875 -6.265625 L 0.359375 -9.078125 L 2.03125 -10.09375 L 2.25 -5.953125 L 6.078125 -3.71875 L 4.359375 -2.671875 L 1.703125 -4.265625 L 1.578125 -4.1875 Z M 1.8125 -1.109375 "/></g></g><g style="fill:#ffffff;fill-opacity:1;"><g transform="translate(35.119489, 15.927517)"><path style="stroke:none" d="M 4.09375 -1.625 C 3.425781 -1.332031 2.773438 -1.210938 2.140625 -1.265625 C 1.503906 -1.316406 0.921875 -1.550781 0.390625 -1.96875 C -0.128906 -2.382812 -0.554688 -2.96875 -0.890625 -3.71875 C -1.222656 -4.488281 -1.359375 -5.203125 -1.296875 -5.859375 C -1.242188 -6.523438 -1.019531 -7.109375 -0.625 -7.609375 C -0.238281 -8.109375 0.28125 -8.5 0.9375 -8.78125 C 2.394531 -9.414062 3.5625 -9.296875 4.4375 -8.421875 L 3.625 -7.046875 L 3.46875 -6.984375 C 3.195312 -7.253906 2.910156 -7.414062 2.609375 -7.46875 C 2.316406 -7.53125 1.972656 -7.476562 1.578125 -7.3125 C 1.078125 -7.09375 0.757812 -6.75 0.625 -6.28125 C 0.5 -5.8125 0.59375 -5.21875 0.90625 -4.5 C 1.21875 -3.789062 1.59375 -3.320312 2.03125 -3.09375 C 2.46875 -2.875 2.941406 -2.875 3.453125 -3.09375 C 3.835938 -3.257812 4.113281 -3.5 4.28125 -3.8125 C 4.445312 -4.125 4.503906 -4.492188 4.453125 -4.921875 L 4.578125 -5 L 6.109375 -4.859375 C 6.191406 -4.191406 6.078125 -3.570312 5.765625 -3 C 5.453125 -2.425781 4.894531 -1.96875 4.09375 -1.625 Z M 4.09375 -1.625 "/></g></g><g style="fill:#ffffff;fill-opacity:1;"><g transform="translate(41.77716, 12.983662)"><path style="stroke:none" d="M 6.34375 -5.15625 L 1.65625 -3.90625 C 1.875 -3.28125 2.175781 -2.863281 2.5625 -2.65625 C 2.945312 -2.457031 3.40625 -2.429688 3.9375 -2.578125 C 4.363281 -2.679688 4.679688 -2.847656 4.890625 -3.078125 C 5.109375 -3.304688 5.257812 -3.597656 5.34375 -3.953125 L 5.46875 -3.984375 L 6.90625 -3.53125 C 6.789062 -2.957031 6.535156 -2.445312 6.140625 -2 C 5.753906 -1.550781 5.15625 -1.222656 4.34375 -1.015625 C 3.59375 -0.804688 2.90625 -0.769531 2.28125 -0.90625 C 1.664062 -1.050781 1.132812 -1.367188 0.6875 -1.859375 C 0.238281 -2.347656 -0.09375 -3 -0.3125 -3.8125 C -0.53125 -4.632812 -0.5625 -5.367188 -0.40625 -6.015625 C -0.25 -6.671875 0.0546875 -7.207031 0.515625 -7.625 C 0.972656 -8.050781 1.535156 -8.351562 2.203125 -8.53125 C 3.234375 -8.8125 4.097656 -8.75 4.796875 -8.34375 C 5.492188 -7.945312 5.984375 -7.222656 6.265625 -6.171875 C 6.367188 -5.785156 6.4375 -5.484375 6.46875 -5.265625 Z M 4.453125 -5.90625 C 4.296875 -6.445312 4.0625 -6.816406 3.75 -7.015625 C 3.4375 -7.210938 3.050781 -7.25 2.59375 -7.125 C 1.675781 -6.882812 1.269531 -6.203125 1.375 -5.078125 Z M 4.453125 -5.90625 "/></g></g><g clip-rule="nonzero" clip-path="url(#73c85cbff7)"><g style="fill:#ffffff;fill-opacity:1;"><g transform="translate(49.334183, 11.063908)"><path style="stroke:none" d="M 3.109375 -0.3125 C 2.441406 -0.207031 1.90625 -0.3125 1.5 -0.625 C 1.09375 -0.9375 0.835938 -1.46875 0.734375 -2.21875 L -0.484375 -10.609375 L 1.390625 -10.875 L 2.59375 -2.5625 C 2.664062 -2.101562 2.890625 -1.898438 3.265625 -1.953125 C 3.378906 -1.972656 3.488281 -2.003906 3.59375 -2.046875 L 3.6875 -2.03125 L 4.078125 -0.625 C 3.972656 -0.550781 3.835938 -0.488281 3.671875 -0.4375 C 3.515625 -0.382812 3.328125 -0.34375 3.109375 -0.3125 Z M 3.109375 -0.3125 "/></g></g></g><g style="fill:#ffffff;fill-opacity:1;"><g transform="translate(53.365907, 10.480567)"><path style="stroke:none" d="M 1.921875 -0.0625 C 1.679688 -0.0507812 1.46875 -0.0859375 1.28125 -0.171875 C 1.09375 -0.253906 0.941406 -0.378906 0.828125 -0.546875 C 0.722656 -0.710938 0.660156 -0.90625 0.640625 -1.125 C 0.628906 -1.34375 0.664062 -1.539062 0.75 -1.71875 C 0.84375 -1.894531 0.972656 -2.039062 1.140625 -2.15625 C 1.316406 -2.28125 1.523438 -2.347656 1.765625 -2.359375 C 2.015625 -2.378906 2.234375 -2.34375 2.421875 -2.25 C 2.617188 -2.164062 2.769531 -2.039062 2.875 -1.875 C 2.988281 -1.707031 3.050781 -1.515625 3.0625 -1.296875 C 3.082031 -0.960938 2.988281 -0.679688 2.78125 -0.453125 C 2.582031 -0.222656 2.296875 -0.09375 1.921875 -0.0625 Z M 1.921875 -0.0625 "/></g></g><g style="fill:#ffffff;fill-opacity:1;"><g transform="translate(57.341082, 10.239039)"><path style="stroke:none" d=""/></g></g><g clip-rule="nonzero" clip-path="url(#ba4e9ba743)"><g style="fill:#ffffff;fill-opacity:1;"><g transform="translate(59.929085, 10.071449)"><path style="stroke:none" d="M 3.75 -4 L 3.453125 -1.28125 L 8.1875 -0.75 L 8 0.890625 L 1.28125 0.140625 L 2.390625 -9.796875 L 9 -9.0625 L 8.8125 -7.421875 L 4.1875 -7.9375 L 3.9375 -5.609375 L 7.96875 -5.15625 L 7.78125 -3.546875 Z M 3.75 -4 "/></g></g></g><g style="fill:#ffffff;fill-opacity:1;"><g transform="translate(67.877324, 10.665081)"><path style="stroke:none" d="M 1.046875 0.34375 L 3.375 -6.84375 L 5.09375 -6.296875 L 4.78125 -5.328125 L 4.90625 -5.25 C 5.257812 -5.5625 5.617188 -5.753906 5.984375 -5.828125 C 6.359375 -5.910156 6.796875 -5.875 7.296875 -5.71875 C 7.828125 -5.539062 8.222656 -5.289062 8.484375 -4.96875 C 8.753906 -4.644531 8.894531 -4.253906 8.90625 -3.796875 L 9.046875 -3.75 C 9.410156 -4.101562 9.796875 -4.328125 10.203125 -4.421875 C 10.617188 -4.523438 11.09375 -4.488281 11.625 -4.3125 C 13.101562 -3.832031 13.578125 -2.765625 13.046875 -1.109375 L 11.484375 3.71875 L 9.671875 3.125 L 11.15625 -1.46875 C 11.289062 -1.894531 11.304688 -2.222656 11.203125 -2.453125 C 11.109375 -2.691406 10.878906 -2.867188 10.515625 -2.984375 C 9.535156 -3.304688 8.832031 -2.8125 8.40625 -1.5 L 7.171875 2.3125 L 5.359375 1.734375 L 6.84375 -2.859375 C 6.976562 -3.285156 6.992188 -3.613281 6.890625 -3.84375 C 6.785156 -4.082031 6.550781 -4.265625 6.1875 -4.390625 C 5.71875 -4.535156 5.304688 -4.492188 4.953125 -4.265625 C 4.597656 -4.046875 4.3125 -3.597656 4.09375 -2.921875 L 2.84375 0.921875 Z M 1.046875 0.34375 "/></g></g><g style="fill:#ffffff;fill-opacity:1;"><g transform="translate(79.59433, 14.600029)"><path style="stroke:none" d="M -0.5625 3.203125 L 4.6875 -6 L 6.328125 -5.0625 L 5.84375 -4.21875 L 5.953125 -4.125 C 6.335938 -4.34375 6.738281 -4.441406 7.15625 -4.421875 C 7.570312 -4.410156 8 -4.28125 8.4375 -4.03125 C 8.96875 -3.726562 9.359375 -3.34375 9.609375 -2.875 C 9.867188 -2.40625 9.960938 -1.847656 9.890625 -1.203125 C 9.816406 -0.566406 9.5625 0.125 9.125 0.875 C 8.695312 1.625 8.222656 2.1875 7.703125 2.5625 C 7.179688 2.9375 6.644531 3.128906 6.09375 3.140625 C 5.539062 3.160156 4.992188 3.015625 4.453125 2.703125 C 4.046875 2.472656 3.734375 2.207031 3.515625 1.90625 C 3.296875 1.601562 3.164062 1.242188 3.125 0.828125 L 2.984375 0.796875 L 1.078125 4.140625 Z M 4.8125 1.046875 C 5.289062 1.328125 5.75 1.378906 6.1875 1.203125 C 6.625 1.023438 7.035156 0.59375 7.421875 -0.09375 C 7.828125 -0.789062 7.992188 -1.367188 7.921875 -1.828125 C 7.847656 -2.296875 7.570312 -2.671875 7.09375 -2.953125 C 6.625 -3.222656 6.15625 -3.265625 5.6875 -3.078125 C 5.226562 -2.898438 4.804688 -2.472656 4.421875 -1.796875 C 4.046875 -1.128906 3.898438 -0.554688 3.984375 -0.078125 C 4.066406 0.398438 4.34375 0.773438 4.8125 1.046875 Z M 4.8125 1.046875 "/></g></g><g style="fill:#ffffff;fill-opacity:1;"><g transform="translate(86.978563, 18.775944)"><path style="stroke:none" d="M 3.296875 2.875 C 2.734375 2.414062 2.328125 1.890625 2.078125 1.296875 C 1.835938 0.710938 1.78125 0.0976562 1.90625 -0.546875 C 2.039062 -1.203125 2.367188 -1.851562 2.890625 -2.5 C 3.421875 -3.144531 3.988281 -3.59375 4.59375 -3.84375 C 5.207031 -4.101562 5.828125 -4.171875 6.453125 -4.046875 C 7.085938 -3.929688 7.6875 -3.644531 8.25 -3.1875 C 8.820312 -2.71875 9.226562 -2.1875 9.46875 -1.59375 C 9.71875 -1.007812 9.773438 -0.394531 9.640625 0.25 C 9.503906 0.90625 9.171875 1.554688 8.640625 2.203125 C 8.117188 2.847656 7.554688 3.296875 6.953125 3.546875 C 6.347656 3.804688 5.726562 3.875 5.09375 3.75 C 4.46875 3.632812 3.867188 3.34375 3.296875 2.875 Z M 4.3125 1.625 C 5.21875 2.375 6.15625 2.15625 7.125 0.96875 C 7.632812 0.351562 7.890625 -0.191406 7.890625 -0.671875 C 7.890625 -1.148438 7.671875 -1.570312 7.234375 -1.9375 C 6.328125 -2.675781 5.382812 -2.453125 4.40625 -1.265625 C 3.4375 -0.078125 3.40625 0.882812 4.3125 1.625 Z M 4.3125 1.625 "/></g></g><g style="fill:#ffffff;fill-opacity:1;"><g transform="translate(93.412259, 23.814891)"><path style="stroke:none" d="M 2.609375 3.09375 L 1.328125 1.578125 L 5.953125 -4.65625 L 7.078125 -3.328125 L 3.890625 0.828125 L 3.984375 0.921875 L 8.8125 -1.265625 L 9.875 -0.015625 L 6.921875 4.40625 L 7.015625 4.515625 L 11.609375 2.03125 L 12.71875 3.34375 L 5.796875 6.859375 L 4.515625 5.34375 L 7.515625 0.953125 L 7.421875 0.828125 Z M 2.609375 3.09375 "/></g></g><g style="fill:#ffffff;fill-opacity:1;"><g transform="translate(100.086505, 31.829388)"><path style="stroke:none" d="M 6.609375 4.78125 L 4.1875 0.59375 C 3.65625 0.96875 3.335938 1.363281 3.234375 1.78125 C 3.128906 2.207031 3.21875 2.660156 3.5 3.140625 C 3.71875 3.515625 3.960938 3.78125 4.234375 3.9375 C 4.503906 4.09375 4.820312 4.15625 5.1875 4.125 L 5.25 4.25 L 5.203125 5.75 C 4.617188 5.800781 4.0625 5.691406 3.53125 5.421875 C 3 5.148438 2.523438 4.65625 2.109375 3.9375 C 1.710938 3.257812 1.503906 2.597656 1.484375 1.953125 C 1.460938 1.316406 1.625 0.71875 1.96875 0.15625 C 2.320312 -0.394531 2.863281 -0.878906 3.59375 -1.296875 C 4.332031 -1.722656 5.035156 -1.941406 5.703125 -1.953125 C 6.378906 -1.960938 6.976562 -1.800781 7.5 -1.46875 C 8.03125 -1.132812 8.46875 -0.671875 8.8125 -0.078125 C 9.351562 0.847656 9.519531 1.695312 9.3125 2.46875 C 9.101562 3.25 8.523438 3.910156 7.578125 4.453125 C 7.234375 4.648438 6.957031 4.789062 6.75 4.875 Z M 6.859375 2.765625 C 7.347656 2.472656 7.644531 2.148438 7.75 1.796875 C 7.851562 1.453125 7.785156 1.070312 7.546875 0.65625 C 7.078125 -0.164062 6.316406 -0.382812 5.265625 0 Z M 6.859375 2.765625 "/></g></g><g style="fill:#ffffff;fill-opacity:1;"><g transform="translate(103.914626, 38.568306)"><path style="stroke:none" d="M 0.421875 1.015625 L 7.40625 -1.859375 L 8.09375 -0.171875 L 7.046875 0.265625 L 7.078125 0.390625 C 7.523438 0.410156 7.894531 0.519531 8.1875 0.71875 C 8.488281 0.925781 8.722656 1.226562 8.890625 1.625 C 9.046875 2.007812 9.097656 2.332031 9.046875 2.59375 L 7.421875 2.921875 L 7.34375 2.78125 C 7.34375 2.664062 7.332031 2.550781 7.3125 2.4375 C 7.289062 2.320312 7.25 2.1875 7.1875 2.03125 C 6.988281 1.539062 6.664062 1.238281 6.21875 1.125 C 5.769531 1.007812 5.164062 1.109375 4.40625 1.421875 L 1.140625 2.765625 Z M 0.421875 1.015625 "/></g></g><g style="fill:#ffffff;fill-opacity:1;"><g transform="translate(106.016877, 43.761578)"><path style="stroke:none" d="M 0.5 1.859375 C 0.425781 1.628906 0.410156 1.410156 0.453125 1.203125 C 0.492188 1.003906 0.582031 0.832031 0.71875 0.6875 C 0.863281 0.539062 1.039062 0.4375 1.25 0.375 C 1.457031 0.300781 1.65625 0.285156 1.84375 0.328125 C 2.039062 0.378906 2.210938 0.476562 2.359375 0.625 C 2.515625 0.769531 2.628906 0.957031 2.703125 1.1875 C 2.773438 1.414062 2.789062 1.628906 2.75 1.828125 C 2.707031 2.035156 2.617188 2.210938 2.484375 2.359375 C 2.347656 2.503906 2.175781 2.609375 1.96875 2.671875 C 1.644531 2.773438 1.347656 2.753906 1.078125 2.609375 C 0.804688 2.460938 0.613281 2.210938 0.5 1.859375 Z M 0.5 1.859375 "/></g></g><g style="fill:#ffffff;fill-opacity:1;"><g transform="translate(107.08184, 47.241595)"><path style="stroke:none" d=""/></g></g><g clip-rule="nonzero" clip-path="url(#6a861407e2)"><g style="fill:#ffffff;fill-opacity:1;"><g transform="translate(107.923485, 50.058378)"><path style="stroke:none" d="M 4.75 2.71875 L 2.03125 3.046875 L 2.609375 7.78125 L 0.96875 7.984375 L 0.15625 1.28125 L 10.078125 0.0625 L 10.890625 6.65625 L 9.25 6.859375 L 8.671875 2.234375 L 6.34375 2.515625 L 6.84375 6.5625 L 5.25 6.765625 Z M 4.75 2.71875 "/></g></g></g><g style="fill:#ffffff;fill-opacity:1;"><g transform="translate(108.920253, 58.075963)"><path style="stroke:none" d="M -0.171875 5.1875 L -0.09375 2.9375 L 7.546875 0.40625 L 7.46875 2.390625 L 2.03125 4.078125 L 2.03125 4.234375 L 7.34375 6.296875 L 7.28125 8.234375 Z M -0.171875 5.1875 "/></g></g><g style="fill:#ffffff;fill-opacity:1;"><g transform="translate(108.726998, 65.662942)"><path style="stroke:none" d="M -0.96875 4.265625 C -0.832031 3.546875 -0.5625 2.9375 -0.15625 2.4375 C 0.25 1.945312 0.765625 1.609375 1.390625 1.421875 C 2.023438 1.234375 2.753906 1.21875 3.578125 1.375 C 4.390625 1.53125 5.054688 1.816406 5.578125 2.234375 C 6.097656 2.648438 6.453125 3.160156 6.640625 3.765625 C 6.828125 4.378906 6.851562 5.046875 6.71875 5.765625 C 6.570312 6.492188 6.296875 7.101562 5.890625 7.59375 C 5.492188 8.09375 4.972656 8.4375 4.328125 8.625 C 3.691406 8.8125 2.96875 8.828125 2.15625 8.671875 C 1.332031 8.515625 0.664062 8.226562 0.15625 7.8125 C -0.351562 7.394531 -0.703125 6.878906 -0.890625 6.265625 C -1.085938 5.660156 -1.113281 4.992188 -0.96875 4.265625 Z M 0.609375 4.578125 C 0.378906 5.734375 1.019531 6.457031 2.53125 6.75 C 3.3125 6.90625 3.910156 6.867188 4.328125 6.640625 C 4.753906 6.410156 5.023438 6.015625 5.140625 5.453125 C 5.359375 4.304688 4.710938 3.585938 3.203125 3.296875 C 1.691406 3.003906 0.828125 3.429688 0.609375 4.578125 Z M 0.609375 4.578125 "/></g></g><g style="fill:#ffffff;fill-opacity:1;"><g transform="translate(107.039804, 73.826638)"><path style="stroke:none" d="M -1.109375 2.921875 C -0.898438 2.273438 -0.566406 1.84375 -0.109375 1.625 C 0.347656 1.40625 0.9375 1.410156 1.65625 1.640625 L 9.71875 4.265625 L 9.140625 6.0625 L 1.140625 3.46875 C 0.703125 3.320312 0.425781 3.425781 0.3125 3.78125 C 0.269531 3.894531 0.25 4.015625 0.25 4.140625 L 0.1875 4.21875 L -1.25 3.9375 C -1.257812 3.820312 -1.253906 3.675781 -1.234375 3.5 C -1.210938 3.320312 -1.171875 3.128906 -1.109375 2.921875 Z M -1.109375 2.921875 "/></g></g><g style="fill:#ffffff;fill-opacity:1;"><g transform="translate(105.934447, 77.632994)"><path style="stroke:none" d="M -2.15625 4.71875 L -1.21875 2.671875 L 6.796875 3.265625 L 5.96875 5.078125 L 0.296875 4.546875 L 0.234375 4.6875 L 4.34375 8.625 L 3.53125 10.390625 Z M -2.15625 4.71875 "/></g></g><g style="fill:#ffffff;fill-opacity:1;"><g transform="translate(102.81357, 84.556454)"><path style="stroke:none" d="M -1.296875 8.0625 L 1.359375 4.015625 C 0.773438 3.703125 0.273438 3.597656 -0.140625 3.703125 C -0.554688 3.804688 -0.914062 4.085938 -1.21875 4.546875 C -1.457031 4.910156 -1.582031 5.25 -1.59375 5.5625 C -1.613281 5.875 -1.535156 6.1875 -1.359375 6.5 L -1.4375 6.609375 L -2.796875 7.234375 C -3.097656 6.734375 -3.25 6.1875 -3.25 5.59375 C -3.257812 5 -3.035156 4.351562 -2.578125 3.65625 C -2.148438 3 -1.65625 2.515625 -1.09375 2.203125 C -0.53125 1.890625 0.078125 1.765625 0.734375 1.828125 C 1.390625 1.898438 2.066406 2.164062 2.765625 2.625 C 3.484375 3.101562 4 3.640625 4.3125 4.234375 C 4.625 4.828125 4.75 5.429688 4.6875 6.046875 C 4.632812 6.660156 4.421875 7.253906 4.046875 7.828125 C 3.453125 8.722656 2.757812 9.253906 1.96875 9.421875 C 1.1875 9.585938 0.335938 9.367188 -0.578125 8.765625 C -0.910156 8.546875 -1.15625 8.363281 -1.3125 8.21875 Z M 0.609375 7.390625 C 1.097656 7.679688 1.519531 7.796875 1.875 7.734375 C 2.226562 7.671875 2.539062 7.4375 2.8125 7.03125 C 3.332031 6.238281 3.179688 5.46875 2.359375 4.71875 Z M 0.609375 7.390625 "/></g></g><g style="fill:#ffffff;fill-opacity:1;"><g transform="translate(98.438873, 91.025159)"><path style="stroke:none" d="M -1.28125 1.4375 C -1.125 1.25 -0.945312 1.117188 -0.75 1.046875 C -0.5625 0.972656 -0.367188 0.953125 -0.171875 0.984375 C 0.0234375 1.015625 0.207031 1.097656 0.375 1.234375 C 0.539062 1.378906 0.65625 1.546875 0.71875 1.734375 C 0.789062 1.921875 0.804688 2.117188 0.765625 2.328125 C 0.734375 2.535156 0.640625 2.734375 0.484375 2.921875 C 0.328125 3.109375 0.15625 3.238281 -0.03125 3.3125 C -0.226562 3.382812 -0.425781 3.398438 -0.625 3.359375 C -0.820312 3.328125 -1.003906 3.242188 -1.171875 3.109375 C -1.429688 2.890625 -1.570312 2.625 -1.59375 2.3125 C -1.625 2.007812 -1.519531 1.71875 -1.28125 1.4375 Z M -1.28125 1.4375 "/></g></g><g style="fill:#ffffff;fill-opacity:1;"><g transform="translate(96.099861, 93.82196)"><path style="stroke:none" d=""/></g></g><g style="fill:#ffffff;fill-opacity:1;"><g transform="translate(94.199332, 96.061703)"><path style="stroke:none" d="M 0.3125 5.46875 L -1.453125 3.375 L -5.09375 6.4375 L -6.15625 5.171875 L -1 0.828125 L 5.4375 8.484375 L 0.359375 12.765625 L -0.71875 11.5 L 2.84375 8.5 L 1.34375 6.703125 L -1.765625 9.3125 L -2.796875 8.078125 Z M 0.3125 5.46875 "/></g></g><g style="fill:#ffffff;fill-opacity:1;"><g transform="translate(87.994377, 101.258264)"><path style="stroke:none" d="M -1.8125 1.109375 L -0.109375 0.0625 L 0.109375 4.515625 L 3.734375 6.5625 L 2.015625 7.625 L -0.390625 6.1875 L -0.53125 6.265625 L -0.34375 9.078125 L -2.015625 10.09375 L -2.234375 5.953125 L -6.078125 3.734375 L -4.359375 2.671875 L -1.703125 4.265625 L -1.578125 4.1875 Z M -1.8125 1.109375 "/></g></g><g style="fill:#ffffff;fill-opacity:1;"><g transform="translate(82.231068, 104.855081)"><path style="stroke:none" d="M -4.09375 1.625 C -3.414062 1.332031 -2.757812 1.210938 -2.125 1.265625 C -1.488281 1.316406 -0.90625 1.550781 -0.375 1.96875 C 0.144531 2.382812 0.566406 2.96875 0.890625 3.71875 C 1.222656 4.476562 1.359375 5.191406 1.296875 5.859375 C 1.242188 6.523438 1.019531 7.109375 0.625 7.609375 C 0.238281 8.109375 -0.28125 8.5 -0.9375 8.78125 C -2.394531 9.414062 -3.5625 9.296875 -4.4375 8.421875 L -3.609375 7.046875 L -3.46875 6.984375 C -3.1875 7.253906 -2.894531 7.421875 -2.59375 7.484375 C -2.300781 7.546875 -1.960938 7.488281 -1.578125 7.3125 C -1.078125 7.101562 -0.757812 6.757812 -0.625 6.28125 C -0.5 5.8125 -0.59375 5.21875 -0.90625 4.5 C -1.207031 3.789062 -1.578125 3.320312 -2.015625 3.09375 C -2.453125 2.875 -2.925781 2.875 -3.4375 3.09375 C -3.8125 3.257812 -4.085938 3.5 -4.265625 3.8125 C -4.441406 4.132812 -4.503906 4.503906 -4.453125 4.921875 L -4.5625 5 L -6.109375 4.875 C -6.179688 4.195312 -6.0625 3.570312 -5.75 3 C -5.445312 2.4375 -4.894531 1.976562 -4.09375 1.625 Z M -4.09375 1.625 "/></g></g><g style="fill:#ffffff;fill-opacity:1;"><g transform="translate(75.584465, 107.807549)"><path style="stroke:none" d="M -6.34375 5.15625 L -1.65625 3.90625 C -1.875 3.28125 -2.175781 2.863281 -2.5625 2.65625 C -2.945312 2.457031 -3.40625 2.429688 -3.9375 2.578125 C -4.363281 2.691406 -4.679688 2.859375 -4.890625 3.078125 C -5.109375 3.304688 -5.257812 3.597656 -5.34375 3.953125 L -5.46875 3.984375 L -6.90625 3.53125 C -6.789062 2.957031 -6.535156 2.445312 -6.140625 2 C -5.753906 1.5625 -5.15625 1.234375 -4.34375 1.015625 C -3.59375 0.816406 -2.90625 0.785156 -2.28125 0.921875 C -1.664062 1.054688 -1.132812 1.367188 -0.6875 1.859375 C -0.238281 2.347656 0.09375 3 0.3125 3.8125 C 0.539062 4.632812 0.578125 5.367188 0.421875 6.015625 C 0.265625 6.671875 -0.0390625 7.210938 -0.5 7.640625 C -0.96875 8.066406 -1.535156 8.367188 -2.203125 8.546875 C -3.234375 8.816406 -4.09375 8.75 -4.78125 8.34375 C -5.476562 7.945312 -5.96875 7.222656 -6.25 6.171875 C -6.351562 5.785156 -6.414062 5.488281 -6.4375 5.28125 Z M -4.453125 5.90625 C -4.273438 6.457031 -4.03125 6.828125 -3.71875 7.015625 C -3.414062 7.210938 -3.035156 7.25 -2.578125 7.125 C -1.660156 6.875 -1.257812 6.195312 -1.375 5.09375 Z M -4.453125 5.90625 "/></g></g><g clip-rule="nonzero" clip-path="url(#8506289428)"><g style="fill:#ffffff;fill-opacity:1;"><g transform="translate(68.032999, 109.737082)"><path style="stroke:none" d="M -3.109375 0.3125 C -2.441406 0.207031 -1.90625 0.3125 -1.5 0.625 C -1.09375 0.9375 -0.835938 1.46875 -0.734375 2.21875 L 0.484375 10.609375 L -1.390625 10.875 L -2.59375 2.5625 C -2.65625 2.101562 -2.875 1.898438 -3.25 1.953125 C -3.363281 1.972656 -3.476562 2.007812 -3.59375 2.0625 L -3.6875 2.03125 L -4.078125 0.625 C -3.972656 0.5625 -3.835938 0.5 -3.671875 0.4375 C -3.515625 0.382812 -3.328125 0.34375 -3.109375 0.3125 Z M -3.109375 0.3125 "/></g></g></g><g style="fill:#ffffff;fill-opacity:1;"><g transform="translate(64.001577, 110.325634)"><path style="stroke:none" d="M -1.921875 0.0625 C -1.679688 0.0507812 -1.46875 0.0859375 -1.28125 0.171875 C -1.09375 0.253906 -0.941406 0.378906 -0.828125 0.546875 C -0.722656 0.710938 -0.660156 0.90625 -0.640625 1.125 C -0.628906 1.34375 -0.664062 1.539062 -0.75 1.71875 C -0.84375 1.894531 -0.972656 2.039062 -1.140625 2.15625 C -1.316406 2.28125 -1.523438 2.347656 -1.765625 2.359375 C -2.015625 2.378906 -2.234375 2.34375 -2.421875 2.25 C -2.617188 2.164062 -2.769531 2.039062 -2.875 1.875 C -2.988281 1.71875 -3.050781 1.53125 -3.0625 1.3125 C -3.082031 0.976562 -2.988281 0.691406 -2.78125 0.453125 C -2.582031 0.222656 -2.296875 0.09375 -1.921875 0.0625 Z M -1.921875 0.0625 "/></g></g></g></svg>