<svg width="60" height="60" viewBox="0 0 60 60" fill="none" xmlns="http://www.w3.org/2000/svg">
<path d="M16.1682 0C17.4838 0.318487 18.8591 0.497636 20.1347 0.975367C24.6792 2.68723 27.948 5.71286 29.3432 10.4703C29.6223 11.4456 29.7618 12.5006 29.7618 13.5158C29.8017 18.8106 29.7817 24.0856 29.7817 29.3804C29.7817 29.48 29.7618 29.5795 29.7618 29.7586C29.5226 29.7586 29.3034 29.7586 29.0841 29.7586C24.1211 29.7586 19.158 29.7188 14.195 29.7785C9.49106 29.8383 5.86346 27.788 3.13279 24.1453C0.721031 20.9405 -0.315427 17.3376 0.0832105 13.3366C0.740963 6.70813 5.96312 1.21423 12.5606 0.21896C12.9393 0.159244 13.318 0.0796218 13.6967 0C14.5338 0 15.351 0 16.1682 0Z" fill="#FE5B2C"/>
<path d="M60 47.5341C59.701 48.7682 59.5017 50.062 59.0632 51.2564C56.9105 57.1683 50.5523 60.8309 44.3335 59.756C39.8887 58.9797 36.4604 56.6706 34.248 52.7095C33.3311 51.0573 32.9524 49.2459 32.9524 47.3748C32.9524 42.7766 32.9524 38.1785 32.9524 33.5604C32.9524 33.0827 33.072 32.9434 33.5703 32.9434C38.1745 32.9633 42.7788 32.9235 47.403 32.9633C52.1667 32.9832 55.5552 35.3718 57.9869 39.2932C59.0432 40.9852 59.6611 42.8563 59.8804 44.8269C59.9003 44.9662 59.9601 45.0857 59.98 45.2051C60 45.9615 60 46.7378 60 47.5341Z" fill="#FE5B2C"/>
<path d="M29.7824 32.9627C29.7824 33.2215 29.7824 33.4405 29.7824 33.6594C29.7824 38.0784 29.7425 42.5173 29.8023 46.9363C29.8621 51.7933 27.6298 55.3563 23.6035 57.8047C19.2982 60.4322 14.7538 60.7109 10.2093 58.4218C6.14317 56.3715 3.63175 53.0274 2.99393 48.5288C2.17672 42.8159 4.24964 38.1979 8.9735 34.8338C10.8272 33.5201 12.9399 32.9229 15.1923 32.9229C19.936 32.903 24.6798 32.9229 29.4236 32.9229C29.5034 32.9428 29.5831 32.9627 29.7824 32.9627Z" fill="#FE5B2C"/>
<path d="M32.9716 29.719C32.9716 29.4403 32.9716 29.2214 32.9716 28.9825C32.9716 25.4592 33.0712 21.9161 32.9516 18.3928C32.7324 12.2022 37.8549 8.24103 42.3595 7.60405C47.9005 6.80784 52.8835 9.79365 54.7372 15.0885C56.7902 20.881 53.342 27.7484 47.5019 29.4204C46.7844 29.6195 46.007 29.7389 45.2496 29.7389C41.2832 29.7787 37.3167 29.7588 33.3503 29.7588C33.2705 29.7389 33.1709 29.7389 32.9716 29.719Z" fill="#FE5B2C"/>
</svg>
